<svg xmlns="http://www.w3.org/2000/svg" viewBox="0 0 502 502" width="512" height="512"><path d="M492 240.641h-28.648c-5.013-109.268-92.955-197.258-202.204-202.346V10c0-5.523-4.477-10-10-10s-10 4.477-10 10v28.295C131.9 43.383 43.958 131.373 38.945 240.641H10c-5.523 0-10 4.477-10 10s4.477 10 10 10h28.956c5.159 109.131 93.042 196.966 202.192 202.049V492c0 5.523 4.477 10 10 10s10-4.477 10-10v-29.309c109.15-5.084 197.033-92.919 202.192-202.049H492c5.523 0 10-4.477 10-10s-4.477-10.001-10-10.001zM241.148 58.311v30.797c-81.264 4.983-146.484 70.25-151.394 151.533H58.958c4.978-98.239 83.971-177.278 182.19-182.33zm0 384.363c-98.12-5.047-177.05-83.932-182.172-182.033h30.797c5.051 81.145 70.211 146.259 151.375 151.236v30.797zm10-112.884c-5.523 0-10 4.477-10 10v52.049c-70.132-4.914-126.35-61.084-131.336-131.197h52.398c5.523 0 10-4.477 10-10s-4.477-10-10-10h-52.417c4.848-70.251 61.124-126.573 131.355-131.494v53.063c0 5.523 4.477 10 10 10s10-4.477 10-10v-53.063c73.486 5.149 131.703 66.573 131.703 141.346S334.635 386.69 261.148 391.838V339.79c0-5.523-4.477-10-10-10zm10 112.885v-30.797c81.164-4.977 146.325-70.091 151.375-151.236h30.797c-5.121 98.1-84.051 176.985-182.172 182.033zm151.395-202.034c-4.91-81.283-70.131-146.55-151.394-151.533V58.311c98.219 5.052 177.212 84.091 182.19 182.33h-30.796z"/><path d="M339.79 260.641H360c5.523 0 10-4.477 10-10s-4.477-10-10-10h-20.21c-5.523 0-10 4.477-10 10s4.477 10 10 10z"/></svg>