
<svg width="25px" height="13px" viewBox="316 112 25 13" version="1.1" xmlns="http://www.w3.org/2000/svg" xmlns:xlink="http://www.w3.org/1999/xlink">
    <!-- Generator: Sketch 42 (36781) - http://www.bohemiancoding.com/sketch -->
    <desc>Created with Sketch.</desc>
    <defs></defs>
    <path d="M328.387701,124.655184 C328.440968,124.735608 328.559032,124.735608 328.612299,124.655184 L336.743525,112.378628 L340.752988,118.432131 C340.794067,118.494153 340.877646,118.51113 340.939667,118.470051 C341.001689,118.428972 341.018666,118.345392 340.977587,118.283371 L336.855824,112.060318 C336.802556,111.979894 336.684493,111.979894 336.631225,112.060318 L328.5,124.336874 L320.368775,112.060318 C320.315507,111.979894 320.197444,111.979894 320.144176,112.060318 L316.022413,118.283371 C315.981334,118.345392 315.998311,118.428972 316.060333,118.470051 C316.122354,118.51113 316.205933,118.494153 316.247012,118.432131 L320.256475,112.378628 L328.387701,124.655184 Z" id="wave_triangle" stroke="none" fill="#000000" fill-rule="nonzero"></path>
</svg>