<?xml version="1.0" encoding="utf-8"?>
<!-- Generator: Adobe Illustrator 16.0.4, SVG Export Plug-In . SVG Version: 6.00 Build 0)  -->
<!DOCTYPE svg PUBLIC "-//W3C//DTD SVG 1.1//EN" "http://www.w3.org/Graphics/SVG/1.1/DTD/svg11.dtd">
<svg version="1.1" id="Layer_1" xmlns="http://www.w3.org/2000/svg" xmlns:xlink="http://www.w3.org/1999/xlink" x="0px" y="0px"
	 width="400px" height="203.438px" viewBox="-187.5 -95.361 400 203.438" enable-background="new -187.5 -95.361 400 203.438"
	 xml:space="preserve">
<path id="wave_square" d="M-55.602-91.049v196.984c0,1.188,0.961,2.141,2.156,2.141H78.438c1.203,0,2.156-0.953,2.156-2.141V-91.049
	h127.594V6.365c0,1.188,0.969,2.148,2.156,2.148s2.156-0.961,2.156-2.148v-99.57c0-1.188-0.969-2.156-2.156-2.156H78.438
	c-1.188,0-2.141,0.969-2.141,2.156v196.984H-51.297V-93.205c0-1.188-0.961-2.156-2.148-2.156h-131.898
	c-1.188,0-2.156,0.969-2.156,2.156v99.57c0,1.188,0.969,2.148,2.156,2.148s2.156-0.961,2.156-2.148v-97.414H-55.602z"/>
</svg>
