
<svg width="25px" height="13px" viewBox="125 112 25 13" version="1.1" xmlns="http://www.w3.org/2000/svg" xmlns:xlink="http://www.w3.org/1999/xlink">
    <!-- Generator: Sketch 42 (36781) - http://www.bohemiancoding.com/sketch -->
    <desc>Created with Sketch.</desc>
    <defs></defs>
    <path d="M133.76629,119.596142 L133.770679,119.606084 L133.76843,119.601137 L133.76629,119.596142 Z M134.766383,121.785427 L134.771138,121.794693 L134.768712,121.790085 L134.766383,121.785427 Z M143.014649,114.927558 L143.009894,114.936825 L143.012223,114.932167 L143.014649,114.927558 Z M140.273203,121.150601 L140.259701,121.178292 L140.266029,121.16423 L140.273203,121.150601 Z M139.755525,122.147077 L139.750205,122.157414 L139.752805,122.152214 L139.755525,122.147077 Z M137.465302,124.457992 L137.365302,124.446085 L137.415905,124.446085 L137.465302,124.457992 Z M137.24667,124.426602 L137.152066,124.395414 L137.200929,124.406272 L137.24667,124.426602 Z M137.009377,124.336938 L136.935096,124.296057 L136.973975,124.313337 L137.009377,124.336938 Z M126.527627,114.927558 L126.522872,114.936825 L126.525201,114.932167 L126.527627,114.927558 Z M125.259403,118.408742 C125.231235,118.477595 125.152585,118.510577 125.083732,118.48241 C125.014879,118.454243 124.981897,118.375592 125.010064,118.30674 L125.25252,117.714069 L125.523355,117.117993 L125.765235,116.553608 L126.008664,115.985662 L126.25112,115.44687 C126.252256,115.444347 126.5235,114.9288 126.5235,114.9288 L126.765329,114.445142 L127.009218,113.984384 C127.010342,113.982261 127.255216,113.574013 127.255216,113.574013 C127.25788,113.569573 127.532356,113.212281 127.532356,113.212281 L127.774812,112.889006 C127.777219,112.885797 128.024906,112.610321 128.024906,112.610321 C128.028066,112.60681 128.304314,112.357853 128.304314,112.357853 C128.309149,112.353501 128.562162,112.18426 128.562162,112.18426 C128.568508,112.180029 128.824629,112.065489 128.824629,112.065489 C128.832823,112.061847 129.092571,112.003208 129.092571,112.003208 C129.102165,112.001076 129.391187,112 129.391187,112 C129.401015,112 129.662863,112.057087 129.662863,112.057087 C129.671617,112.059032 129.930805,112.173247 129.930805,112.173247 C129.937775,112.176345 130.193272,112.345897 130.193272,112.345897 C130.198685,112.349506 130.478059,112.600309 130.478059,112.600309 C130.48157,112.603468 130.730528,112.879717 130.730528,112.879717 C130.733211,112.882698 130.979628,113.210973 130.979628,113.210973 L131.249024,113.561188 C131.252181,113.565291 131.500218,113.978106 131.500218,113.978106 C131.501455,113.980167 131.746216,114.442357 131.746216,114.442357 L131.989478,114.9288 L132.25822,115.43941 C132.259509,115.441859 132.505287,115.987877 132.505287,115.987877 L132.989623,117.117993 L133.258413,117.709331 L133.744393,118.897022 L134.012721,119.487344 L134.25636,120.055753 L134.497843,120.619269 L134.738595,121.154275 L135.006057,121.662453 L135.249094,122.148461 L135.489131,122.601863 L135.725734,122.996202 L135.991384,123.341563 L136.230228,123.660022 L136.463915,123.919674 L136.72078,124.150852 L136.94557,124.300712 L137.165229,124.398339 L137.380088,124.446085 L137.619912,124.446085 L137.834771,124.398339 L138.05443,124.300712 L138.27922,124.150852 L138.536085,123.919674 L138.769773,123.660021 L139.00961,123.340255 L139.274267,122.996201 L139.510869,122.601863 L139.750906,122.148461 L139.992662,121.664949 L140.261406,121.154273 L140.501184,120.621484 L140.986097,119.490022 L141.255607,118.897022 L141.739543,117.714069 L142.010377,117.117993 L142.252257,116.553608 L142.495686,115.985662 L142.738142,115.44687 C142.739278,115.444347 143.010522,114.9288 143.010522,114.9288 L143.252351,114.445142 L143.49624,113.984384 C143.497364,113.982261 143.742238,113.574013 143.742238,113.574013 C143.744902,113.569573 144.019378,113.212281 144.019378,113.212281 L144.261834,112.889006 C144.264241,112.885797 144.511929,112.610321 144.511929,112.610321 C144.515088,112.60681 144.791336,112.357853 144.791336,112.357853 C144.796171,112.353501 145.049184,112.18426 145.049184,112.18426 C145.05553,112.180029 145.311651,112.065489 145.311651,112.065489 C145.319845,112.061847 145.579593,112.003208 145.579593,112.003208 C145.589187,112.001076 145.878209,112 145.878209,112 C145.888037,112 146.149885,112.057087 146.149885,112.057087 C146.158639,112.059032 146.417827,112.173247 146.417827,112.173247 C146.424797,112.176345 146.680295,112.345897 146.680295,112.345897 C146.685707,112.349506 146.965082,112.600309 146.965082,112.600309 C146.968592,112.603468 147.21755,112.879717 147.21755,112.879717 C147.220233,112.882698 147.466651,113.210973 147.466651,113.210973 L147.736046,113.561188 C147.739203,113.565291 147.98724,113.978106 147.98724,113.978106 C147.988477,113.980167 148.233238,114.442357 148.233238,114.442357 L148.4765,114.9288 L148.745243,115.43941 C148.746531,115.441859 148.992309,115.987877 148.992309,115.987877 L149.476645,117.117993 L149.745435,117.709331 L149.989936,118.30674 C150.018103,118.375592 149.985121,118.454243 149.916268,118.48241 C149.847415,118.510577 149.768765,118.477595 149.740597,118.408742 L149.499118,117.818459 L149.23079,117.228137 L148.987152,116.659728 L148.745668,116.096212 L148.504916,115.561206 L148.237454,115.053028 L147.994417,114.56702 L147.75438,114.113618 L147.517777,113.719279 L147.252127,113.373919 L147.013283,113.055459 L146.779596,112.795807 L146.522731,112.564629 L146.297941,112.414769 L146.078282,112.317142 L145.863423,112.269396 L145.623599,112.269396 L145.408741,112.317142 L145.189081,112.414769 L144.964291,112.564629 L144.707426,112.795807 L144.473738,113.05546 L144.233901,113.375227 L143.969244,113.719281 L143.732642,114.113618 L143.492605,114.56702 L143.250849,115.050532 L142.982105,115.561209 L142.742327,116.093997 L142.257414,117.225459 L141.987904,117.818459 L141.503969,119.001412 L141.233134,119.597488 L140.991254,120.161873 L140.747825,120.72982 L140.505369,121.268611 C140.504233,121.271135 140.232989,121.786681 140.232989,121.786681 L139.99116,122.270339 L139.747271,122.731097 C139.746147,122.733221 139.501273,123.141468 139.501273,123.141468 C139.498609,123.145908 139.224133,123.5032 139.224133,123.5032 L138.981677,123.826475 C138.97927,123.829684 138.731582,124.10516 138.731582,124.10516 C138.728423,124.108671 138.452175,124.357628 138.452175,124.357628 C138.44734,124.36198 138.194327,124.531221 138.194327,124.531221 C138.187981,124.535452 137.93186,124.649993 137.93186,124.649993 C137.923666,124.653635 137.663918,124.712274 137.663918,124.712274 C137.654324,124.714406 137.365302,124.715481 137.365302,124.715481 C137.355474,124.715481 137.093626,124.658394 137.093626,124.658394 C137.084872,124.656449 136.825684,124.542234 136.825684,124.542234 C136.818714,124.539136 136.563217,124.369584 136.563217,124.369584 C136.557804,124.365976 136.27843,124.115172 136.27843,124.115172 C136.274919,124.112013 136.025961,123.835764 136.025961,123.835764 C136.023278,123.832783 135.77686,123.504508 135.77686,123.504508 L135.507465,123.154294 C135.504308,123.15019 135.256271,122.737375 135.256271,122.737375 C135.255034,122.735314 135.010273,122.273124 135.010273,122.273124 L134.767011,121.786681 L134.498268,121.276071 C134.49698,121.273622 134.251202,120.727604 134.251202,120.727604 L133.766866,119.597488 L133.498076,119.00615 L133.012096,117.818459 L132.743768,117.228137 L132.500129,116.659728 L132.258646,116.096212 L132.017894,115.561206 L131.750431,115.053028 L131.507395,114.56702 L131.267358,114.113618 L131.030755,113.719279 L130.765105,113.373919 L130.526261,113.055459 L130.292574,112.795807 L130.035709,112.564629 L129.810919,112.414769 L129.591259,112.317142 L129.376401,112.269396 L129.136577,112.269396 L128.921718,112.317142 L128.702059,112.414769 L128.477269,112.564629 L128.220404,112.795807 L127.986716,113.05546 L127.746879,113.375227 L127.482222,113.719281 L127.24562,114.113618 L127.005583,114.56702 L126.763827,115.050532 L126.495083,115.561209 L126.255305,116.093997 L125.770392,117.225459 L125.500882,117.818459 L125.259403,118.408742 Z" id="wave_sine" stroke="none" fill="#000000" fill-rule="nonzero"></path>
</svg>