
<svg width="25px" height="13px" viewBox="30 112 25 13" version="1.1" xmlns="http://www.w3.org/2000/svg" xmlns:xlink="http://www.w3.org/1999/xlink">
    <!-- Generator: Sketch 42 (36781) - http://www.bohemiancoding.com/sketch -->
    <desc>Created with Sketch.</desc>
    <defs></defs>
    <path d="M38.2435345,112.269397 L38.2435345,124.580819 C38.2435345,124.655211 38.303841,124.715517 38.3782328,124.715517 L46.6217672,124.715517 C46.696159,124.715517 46.7564655,124.655211 46.7564655,124.580819 L46.7564655,112.269397 L54.7306034,112.269397 L54.7306034,118.357759 C54.7306034,118.43215 54.7909099,118.492457 54.8653017,118.492457 C54.9396935,118.492457 55,118.43215 55,118.357759 L55,112.134698 C55,112.060306 54.9396935,112 54.8653017,112 L46.6217672,112 C46.5473754,112 46.487069,112.060306 46.487069,112.134698 L46.487069,124.446121 L38.512931,124.446121 L38.512931,112.134698 C38.512931,112.060306 38.4526246,112 38.3782328,112 L30.1346983,112 C30.0603065,112 30,112.060306 30,112.134698 L30,118.357759 C30,118.43215 30.0603065,118.492457 30.1346983,118.492457 C30.2090901,118.492457 30.2693966,118.43215 30.2693966,118.357759 L30.2693966,112.269397 L38.2435345,112.269397 Z" id="wave_square" stroke="none" fill="#000000" fill-rule="nonzero"></path>
</svg>