
<svg width="26px" height="13px" viewBox="221 112 26 13" version="1.1" xmlns="http://www.w3.org/2000/svg" xmlns:xlink="http://www.w3.org/1999/xlink">
    <!-- Generator: Sketch 42 (36781) - http://www.bohemiancoding.com/sketch -->
    <desc>Created with Sketch.</desc>
    <defs></defs>
    <path d="M229.24613,124.585014 C229.24613,124.696241 229.37328,124.759567 229.462052,124.692553 L245.738375,112.405525 L245.738375,118.36 C245.738375,118.434415 245.798701,118.494741 245.873116,118.494741 C245.947531,118.494741 246.007856,118.434415 246.007856,118.36 L246.007856,112.134986 C246.007856,112.023759 245.880706,111.960433 245.791934,112.027447 L229.515611,124.314475 L229.515611,112.134986 C229.515611,112.023759 229.388461,111.960433 229.299689,112.027447 L221.053567,118.252461 C220.994175,118.297296 220.982374,118.381789 221.027209,118.441181 C221.072044,118.500574 221.156537,118.512374 221.215929,118.467539 L229.24613,112.405525 L229.24613,124.585014 Z" id="wave_sawtooth" stroke="none" fill="#000000" fill-rule="nonzero"></path>
</svg>