<?xml version="1.0" encoding="utf-8"?>
<!-- Generator: Adobe Illustrator 16.0.4, SVG Export Plug-In . SVG Version: 6.00 Build 0)  -->
<!DOCTYPE svg PUBLIC "-//W3C//DTD SVG 1.1//EN" "http://www.w3.org/Graphics/SVG/1.1/DTD/svg11.dtd">
<svg version="1.1" id="Layer_1" xmlns="http://www.w3.org/2000/svg" xmlns:xlink="http://www.w3.org/1999/xlink" x="0px" y="0px"
	 width="399.998px" height="203.438px" viewBox="-187.499 -95.361 399.998 203.438"
	 enable-background="new -187.499 -95.361 399.998 203.438" xml:space="preserve">
<path id="wave_sine" d="M-47.242,26.17l0.07,0.156l-0.031-0.062L-47.242,26.17z M-31.234,61.201l0.07,0.156l-0.039-0.078
	L-31.234,61.201z M100.734-48.518l-0.078,0.148l0.031-0.078L100.734-48.518z M56.875,51.045l-0.219,0.438l0.094-0.219L56.875,51.045
	z M48.594,66.982L48.5,67.154l0.047-0.078L48.594,66.982z M11.946,103.967l-1.602-0.188h0.812L11.946,103.967z M8.446,103.467
	l-1.516-0.5l0.781,0.172L8.446,103.467z M4.649,102.029l-1.188-0.656l0.625,0.281L4.649,102.029z M-163.054-48.518l-0.078,0.148
	l0.039-0.078L-163.054-48.518z M-183.351,7.178c-0.445,1.102-1.703,1.633-2.812,1.18c-1.102-0.453-1.625-1.711-1.172-2.812
	l3.875-9.484l4.336-9.531l3.867-9.031l3.898-9.086l3.875-8.625c0.023-0.039,4.359-8.289,4.359-8.289l3.867-7.734l3.906-7.375
	c0.016-0.031,3.938-6.562,3.938-6.562c0.039-0.078,4.43-5.789,4.43-5.789l3.883-5.172c0.039-0.055,4-4.461,4-4.461
	c0.047-0.055,4.469-4.039,4.469-4.039c0.078-0.07,4.125-2.781,4.125-2.781c0.102-0.062,4.203-1.898,4.203-1.898
	c0.133-0.055,4.289-1,4.289-1c0.148-0.031,4.773-0.047,4.773-0.047c0.156,0,4.352,0.914,4.352,0.914
	c0.133,0.031,4.281,1.859,4.281,1.859c0.117,0.047,4.203,2.758,4.203,2.758c0.086,0.062,4.555,4.078,4.555,4.078
	c0.055,0.047,4.039,4.469,4.039,4.469c0.047,0.047,3.984,5.297,3.984,5.297l4.312,5.602c0.047,0.07,4.016,6.672,4.016,6.672
	c0.023,0.031,3.938,7.43,3.938,7.43l3.891,7.781l4.305,8.172c0.016,0.039,3.953,8.773,3.953,8.773l7.75,18.086l4.297,9.461l7.781,19
	l4.289,9.445l3.898,9.094l3.867,9.016l3.852,8.562l4.273,8.125l3.891,7.781l3.844,7.25l3.781,6.312l4.25,5.531l3.82,5.094
	l3.742,4.156l4.109,3.688l3.602,2.406l3.508,1.562l3.438,0.766h3.843l3.438-0.766l3.516-1.562l3.594-2.406l4.109-3.688l3.734-4.156
	l3.844-5.125l4.234-5.5l3.781-6.312l3.844-7.25l3.859-7.734l4.312-8.172l3.828-8.531l7.766-18.094l4.312-9.492l7.75-18.93
	l4.312-9.531l3.875-9.031l3.906-9.086l3.875-8.625c0.016-0.039,4.359-8.289,4.359-8.289l3.859-7.734l3.906-7.375
	c0.031-0.031,3.938-6.562,3.938-6.562c0.047-0.078,4.438-5.789,4.438-5.789l3.875-5.172c0.031-0.055,4-4.461,4-4.461
	c0.062-0.055,4.469-4.039,4.469-4.039c0.094-0.07,4.125-2.781,4.125-2.781c0.109-0.062,4.203-1.898,4.203-1.898
	c0.141-0.055,4.297-1,4.297-1c0.156-0.031,4.781-0.047,4.781-0.047c0.156,0,4.344,0.914,4.344,0.914
	c0.125,0.031,4.281,1.859,4.281,1.859c0.109,0.047,4.188,2.758,4.188,2.758c0.094,0.062,4.562,4.078,4.562,4.078
	c0.062,0.047,4.047,4.469,4.047,4.469c0.047,0.047,3.984,5.297,3.984,5.297l4.312,5.602c0.047,0.07,4.016,6.672,4.016,6.672
	c0.016,0.031,3.938,7.43,3.938,7.43l3.891,7.781l4.297,8.172c0.016,0.039,3.953,8.773,3.953,8.773l7.75,18.086l4.312,9.461
	l3.906,9.555c0.438,1.102-0.078,2.359-1.188,2.812c-1.094,0.453-2.359-0.078-2.812-1.18l-3.859-9.445l-4.297-9.445l-3.891-9.094
	l-3.859-9.016l-3.859-8.562l-4.281-8.125l-3.891-7.781l-3.844-7.25l-3.781-6.312l-4.25-5.523l-3.812-5.094l-3.75-4.156l-4.094-3.703
	l-3.609-2.391l-3.516-1.562l-3.438-0.766h-3.844l-3.438,0.766l-3.5,1.562l-3.594,2.391l-4.125,3.703l-3.734,4.156l-3.828,5.109
	L116-67.854l-3.781,6.312l-3.844,7.25l-3.859,7.742l-4.297,8.164l-3.844,8.523l-7.75,18.109l-4.312,9.484l-7.75,18.938l-4.344,9.531
	l-3.859,9.031l-3.891,9.094l-3.875,8.609c-0.031,0.047-4.375,8.297-4.375,8.297l-3.859,7.734l-3.906,7.359
	c-0.016,0.047-3.922,6.578-3.922,6.578c-0.062,0.078-4.438,5.781-4.438,5.781l-3.891,5.172c-0.031,0.062-4,4.469-4,4.469
	c-0.047,0.047-4.469,4.031-4.469,4.031c-0.078,0.062-4.125,2.781-4.125,2.781c-0.109,0.062-4.203,1.906-4.203,1.906
	c-0.125,0.062-4.281,1-4.281,1c-0.156,0.031-4.781,0.031-4.781,0.031c-0.156,0-4.344-0.906-4.344-0.906
	c-0.141-0.031-4.289-1.859-4.289-1.859c-0.109-0.047-4.203-2.766-4.203-2.766c-0.086-0.047-4.555-4.062-4.555-4.062
	c-0.055-0.062-4.039-4.469-4.039-4.469c-0.039-0.047-3.984-5.312-3.984-5.312l-4.312-5.594c-0.047-0.062-4.016-6.672-4.016-6.672
	c-0.023-0.031-3.938-7.422-3.938-7.422l-3.891-7.781l-4.305-8.188c-0.016-0.031-3.953-8.766-3.953-8.766l-7.742-18.078l-4.305-9.469
	l-7.773-19l-4.297-9.445l-3.898-9.094l-3.859-9.016l-3.852-8.562l-4.281-8.125l-3.891-7.781l-3.836-7.25l-3.789-6.312l-4.25-5.523
	l-3.82-5.094l-3.742-4.156l-4.109-3.703l-3.594-2.391l-3.516-1.562l-3.438-0.766h-3.836l-3.438,0.766l-3.516,1.562l-3.602,2.391
	l-4.109,3.703l-3.734,4.156l-3.836,5.109l-4.234,5.508l-3.789,6.312l-3.844,7.25l-3.867,7.742l-4.297,8.164l-3.836,8.523
	l-7.758,18.109l-4.312,9.484L-183.351,7.178z"/>
</svg>
