
<svg width="14px" height="1px" viewBox="0 0 14 1" version="1.1" xmlns="http://www.w3.org/2000/svg" xmlns:xlink="http://www.w3.org/1999/xlink">
    <!-- Generator: Sketch 44.1 (41455) - http://www.bohemiancoding.com/sketch -->
    <desc>Created with Sketch.</desc>
    <defs></defs>
    <g id="design-final" stroke="none" stroke-width="1" fill="none" fill-rule="evenodd">
        <g id="Artboard" fill="#000000">
            <g id="Group">
                <rect id="Rectangle-10-Copy-2" x="0" y="0" width="1" height="1" rx="0.5"></rect>
                <rect id="Rectangle-10-Copy-3" x="0.04761904762" y="0" width="1" height="1" rx="0.5"></rect>
                <rect id="Rectangle-10-Copy-4" x="0.09523809524" y="0" width="1" height="1" rx="0.5"></rect>
                <rect id="Rectangle-10-Copy-5" x="0.1428571429" y="0" width="1" height="1" rx="0.5"></rect>
                <rect id="Rectangle-10-Copy-6" x="0.1904761905" y="0" width="1" height="1" rx="0.5"></rect>
                <rect id="Rectangle-10-Copy-7" x="0.2380952381" y="0" width="1" height="1" rx="0.5"></rect>
                <rect id="Rectangle-10-Copy-8" x="0.2857142857" y="0" width="1" height="1" rx="0.5"></rect>
                <rect id="Rectangle-10-Copy-9" x="0.3333333333" y="0" width="1" height="1" rx="0.5"></rect>
                <rect id="Rectangle-10-Copy-10" x="0.380952381" y="0" width="1" height="1" rx="0.5"></rect>
                <rect id="Rectangle-10-Copy-11" x="0.4285714286" y="0" width="1" height="1" rx="0.5"></rect>
                <rect id="Rectangle-10-Copy-12" x="0.4761904762" y="0" width="1" height="1" rx="0.5"></rect>
                <rect id="Rectangle-10-Copy-13" x="0.5238095238" y="0" width="1" height="1" rx="0.5"></rect>
                <rect id="Rectangle-10-Copy-14" x="0.5714285714" y="0" width="1" height="1" rx="0.5"></rect>
                <rect id="Rectangle-10-Copy-15" x="0.6190476191" y="0" width="1" height="1" rx="0.5"></rect>
                <rect id="Rectangle-10-Copy-16" x="0.6666666667" y="0" width="1" height="1" rx="0.5"></rect>
                <rect id="Rectangle-10-Copy-17" x="0.7142857143" y="0" width="1" height="1" rx="0.5"></rect>
                <rect id="Rectangle-10-Copy-18" x="0.7619047619" y="0" width="1" height="1" rx="0.5"></rect>
                <rect id="Rectangle-10-Copy-19" x="0.8095238095" y="0" width="1" height="1" rx="0.5"></rect>
                <rect id="Rectangle-10-Copy-20" x="0.8571428572" y="0" width="1" height="1" rx="0.5"></rect>
                <rect id="Rectangle-10-Copy-21" x="0.9047619048" y="0" width="1" height="1" rx="0.5"></rect>
                <rect id="Rectangle-10-Copy-3" x="0.9523809524" y="0" width="1" height="1" rx="0.5"></rect>
                <rect id="Rectangle-10-Copy-4" x="1" y="0" width="1" height="1" rx="0.5"></rect>
               
            </g>
        </g>
    </g>
</svg>