<?xml version="1.0" encoding="utf-8"?>
<!-- Generator: Adobe Illustrator 16.0.4, SVG Export Plug-In . SVG Version: 6.00 Build 0)  -->
<!DOCTYPE svg PUBLIC "-//W3C//DTD SVG 1.1//EN" "http://www.w3.org/Graphics/SVG/1.1/DTD/svg11.dtd">
<svg version="1.1" id="Layer_1" xmlns="http://www.w3.org/2000/svg" xmlns:xlink="http://www.w3.org/1999/xlink" x="0px" y="0px"
	 width="397.883px" height="202.379px" viewBox="-143.042 -6.667 397.883 202.379"
	 enable-background="new -143.042 -6.667 397.883 202.379" xml:space="preserve">
<path id="wave_sawtooth" d="M-11.843,193.565c0,1.77,2.019,2.78,3.433,1.708L250.555-0.218v94.74c0,1.189,0.964,2.146,2.143,2.146
	c1.182,0,2.145-0.956,2.145-2.146V-4.522c0-1.764-2.019-2.774-3.433-1.709L-7.556,189.262V-4.522c0-1.764-2.019-2.774-3.433-1.709
	l-131.199,99.042c-0.948,0.717-1.134,2.06-0.42,3.009c0.715,0.939,2.06,1.128,2.999,0.421L-11.843-0.218V193.565z"/>
</svg>
