<?xml version="1.0" encoding="utf-8"?>
<!-- Generator: Adobe Illustrator 16.0.4, SVG Export Plug-In . SVG Version: 6.00 Build 0)  -->
<!DOCTYPE svg PUBLIC "-//W3C//DTD SVG 1.1//EN" "http://www.w3.org/Graphics/SVG/1.1/DTD/svg11.dtd">
<svg version="1.1" id="Layer_1" xmlns="http://www.w3.org/2000/svg" xmlns:xlink="http://www.w3.org/1999/xlink" x="0px" y="0px"
	 width="400.006px" height="203.447px" viewBox="-187.503 -95.367 400.006 203.447"
	 enable-background="new -187.503 -95.367 400.006 203.447" xml:space="preserve">
<path id="wave_triangle" d="M10.702,107.119c0.852,1.281,2.743,1.281,3.594,0L144.407-89.306l64.142,96.853
	c0.656,0.992,1.984,1.266,2.984,0.609c1.001-0.664,1.267-2,0.61-2.992L146.188-94.4c-0.844-1.289-2.734-1.289-3.594,0
	L12.499,102.025L-117.605-94.4c-0.852-1.289-2.742-1.289-3.594,0l-65.947,99.564c-0.656,0.992-0.383,2.328,0.609,2.992
	c0.992,0.656,2.328,0.383,2.984-0.609l64.15-96.853L10.702,107.119z"/>
</svg>
